<?xml version="1.0" encoding="UTF-8" standalone="no"?>
<!-- Created with Inkscape (http://www.inkscape.org/) -->

<svg
   xmlns:dc="http://purl.org/dc/elements/1.1/"
   xmlns:cc="http://creativecommons.org/ns#"
   xmlns:rdf="http://www.w3.org/1999/02/22-rdf-syntax-ns#"
   xmlns:svg="http://www.w3.org/2000/svg"
   xmlns="http://www.w3.org/2000/svg"
   xmlns:sodipodi="http://sodipodi.sourceforge.net/DTD/sodipodi-0.dtd"
   xmlns:inkscape="http://www.inkscape.org/namespaces/inkscape"
   width="50mm"
   height="50mm"
   viewBox="0 0 177.16535 177.16535"
   id="svg2"
   version="1.1"
   inkscape:version="0.91 r13725"
   sodipodi:docname="favicon.svg">
  <defs
     id="defs4" />
  <sodipodi:namedview
     id="base"
     pagecolor="#ffffff"
     bordercolor="#666666"
     borderopacity="1.0"
     inkscape:pageopacity="0.0"
     inkscape:pageshadow="2"
     inkscape:zoom="3.3127167"
     inkscape:cx="181.0672"
     inkscape:cy="89.37841"
     inkscape:document-units="px"
     inkscape:current-layer="layer1"
     showgrid="true"
     showguides="false"
     inkscape:window-width="2048"
     inkscape:window-height="1088"
     inkscape:window-x="0"
     inkscape:window-y="27"
     inkscape:window-maximized="1">
    <inkscape:grid
       type="xygrid"
       id="grid4136"
       color="#000000"
       opacity="0.1254902"
       empcolor="#85806c"
       empopacity="0.30980392"
       dotted="false"
       spacingx="17.716534"
       spacingy="17.716534"
       units="mm" />
  </sodipodi:namedview>
  <metadata
     id="metadata7">
    <rdf:RDF>
      <cc:Work
         rdf:about="">
        <dc:format>image/svg+xml</dc:format>
        <dc:type
           rdf:resource="http://purl.org/dc/dcmitype/StillImage" />
        <dc:title></dc:title>
      </cc:Work>
    </rdf:RDF>
  </metadata>
  <g
     inkscape:label="Layer 1"
     inkscape:groupmode="layer"
     id="layer1"
     transform="translate(0,-875.19685)">
    <g
       transform="translate(163.99934,-0.14024339)"
       style="font-style:normal;font-variant:normal;font-weight:normal;font-stretch:normal;font-size:183.18566895px;line-height:125%;font-family:'Serifa Blk BT';-inkscape-font-specification:'Serifa Blk BT';text-align:start;letter-spacing:0px;word-spacing:0px;text-anchor:start;fill:#000000;fill-opacity:1;stroke:none;stroke-width:1px;stroke-linecap:butt;stroke-linejoin:miter;stroke-opacity:1"
       id="text4146-5">
      <path
         inkscape:connector-curvature="0"
         d="m 5.1742925,1028.9472 c 0,8.4079 -1.63985,14.4008 -4.91953998,17.9786 -3.22006002,3.6375 -8.85517002,5.4562 -16.90531952,5.4562 l -115.743293,0 c -8.28867,0 -14.31138,-1.8784 -18.06812,-5.6351 -3.6971,-3.6971 -5.54566,-9.6303 -5.54566,-17.7997 l 0,-129.8759 c 0,-7.57311 2.05727,-13.38711 6.17179,-17.442 4.17415,-4.11452 9.98815,-6.17178 17.44199,-6.17178 l 110.287083,0 c 8.5272,0 15.2058395,1.96781 20.0359295,5.90344 4.83009,3.876 7.24514,9.77945 7.24514,17.71034 z"
         style="font-style:normal;font-variant:normal;font-weight:bold;font-stretch:normal;font-family:'Linux Biolinum Keyboard';-inkscape-font-specification:'Linux Biolinum Keyboard Bold';fill:#87cdde"
         id="path4151-8"
         sodipodi:nodetypes="scssssscsscss" />
    </g>
    <g
       style="font-style:normal;font-variant:normal;font-weight:normal;font-stretch:normal;font-size:183.18566895px;line-height:125%;font-family:'Serifa Blk BT';-inkscape-font-specification:'Serifa Blk BT';text-align:start;letter-spacing:0px;word-spacing:0px;text-anchor:start;fill:#000000;fill-opacity:1;stroke:none;stroke-width:1px;stroke-linecap:butt;stroke-linejoin:miter;stroke-opacity:1"
       id="text4146">
      <path
         d="m 68.457288,930.41611 0,24.06101 9.839074,0 q 8.765721,0 12.164674,-3.04117 3.398953,-3.04117 3.398953,-11.4491 0,-9.74963 -3.488399,-12.70135 -3.488399,-3.04117 -10.196859,-3.04117 -7.871259,0 -9.839074,1.1628 -1.878369,1.1628 -1.878369,5.00898 z m 0,31.30615 0,31.0378 q 0,3.4884 2.146707,4.91954 2.236154,1.43114 9.034059,1.43114 12.790797,0 16.726426,-3.66729 3.93563,-3.66729 3.93563,-12.07523 0,-10.4652 -4.293414,-16.01086 -4.293414,-5.6351 -15.47418,-5.6351 l -12.075228,0 z m -8.855166,-44.27584 q 4.203968,0 10.912427,-0.26833 6.70846,-0.26834 8.676275,-0.26834 17.263102,0 24.866026,6.44012 7.60292,6.35067 7.60292,14.9375 0,5.45622 -3.66729,10.55465 -3.66729,5.00898 -9.123508,7.60292 20.840948,6.08233 20.840948,24.15045 0,10.28631 -9.39184,18.06812 -9.3024,7.78179 -28.175534,7.78179 -6.440121,0 -12.522458,-0.2683 -5.99289,-0.2684 -10.017966,-0.2684 l -9.839074,0.5367 -0.178893,-0.5367 q 1.252246,-8.58678 1.252246,-27.45992 l 0,-33.54229 q 0,-18.51535 -1.252246,-27.45997 l 0.178893,-0.53667 q 5.277321,0.53667 9.839074,0.53667 z M 31.605484,881.93631 q -8.229044,0 -12.70135,4.38286 -4.38286,4.38286 -4.38286,12.61191 l 0,124.24062 q 0,15.2059 17.08421,15.2059 l 104.741416,0 q 8.22904,0 11.71744,-3.4884 3.4884,-3.4884 3.4884,-11.7175 l 0,-124.24062 q 0,-16.99477 -15.20584,-16.99477 l -104.741416,0 z M 169.17363,1028.8069 q 0,12.6119 -4.91954,17.9786 -4.83009,5.4562 -16.90532,5.4562 l -115.743286,0 q -12.433012,0 -18.068118,-5.6351 -5.5456597,-5.5456 -5.5456597,-17.7997 l 0,-129.87582 q 0,-11.35966 6.1717827,-17.442 6.261229,-6.17178 17.441995,-6.17178 l 110.287076,0 q 12.7908,0 20.03593,5.90344 7.24514,5.814 7.24514,17.71034 l 0,129.87582 z"
         style="font-style:normal;font-variant:normal;font-weight:bold;font-stretch:normal;font-family:'Linux Biolinum Keyboard';-inkscape-font-specification:'Linux Biolinum Keyboard Bold'"
         id="path4151" />
    </g>
  </g>
</svg>
